<?xml version="1.0" encoding="utf-8"?>
<svg xmlns="http://www.w3.org/2000/svg" version="1.1" width="1000" height="800">

<line x1="0" y1="0" x2="1000" y2="0" stroke="lightgrey" />
<text x="5" y="-5" fill="lightgrey" >0</text>
<line x1="0" y1="100" x2="1000" y2="100" stroke="lightgrey" />
<text x="5" y="95" fill="lightgrey" >100</text>
<line x1="0" y1="200" x2="1000" y2="200" stroke="lightgrey" />
<text x="5" y="195" fill="lightgrey" >200</text>
<line x1="0" y1="300" x2="1000" y2="300" stroke="lightgrey" />
<text x="5" y="295" fill="lightgrey" >300</text>
<line x1="0" y1="400" x2="1000" y2="400" stroke="lightgrey" />
<text x="5" y="395" fill="lightgrey" >400</text>
<line x1="0" y1="500" x2="1000" y2="500" stroke="lightgrey" />
<text x="5" y="495" fill="lightgrey" >500</text>
<line x1="0" y1="600" x2="1000" y2="600" stroke="lightgrey" />
<text x="5" y="595" fill="lightgrey" >600</text>
<line x1="0" y1="700" x2="1000" y2="700" stroke="lightgrey" />
<text x="5" y="695" fill="lightgrey" >700</text>
<line x1="0" y1="800" x2="1000" y2="800" stroke="lightgrey" />
<text x="5" y="795" fill="lightgrey" >800</text>
<line x1="0" y1="0" x2="0" y2="800" stroke="lightgrey" />
<text x="5" y="15" fill="lightgrey" >0</text>
<line x1="100" y1="0" x2="100" y2="800" stroke="lightgrey" />
<text x="105" y="15" fill="lightgrey" >100</text>
<line x1="200" y1="0" x2="200" y2="800" stroke="lightgrey" />
<text x="205" y="15" fill="lightgrey" >200</text>
<line x1="300" y1="0" x2="300" y2="800" stroke="lightgrey" />
<text x="305" y="15" fill="lightgrey" >300</text>
<line x1="400" y1="0" x2="400" y2="800" stroke="lightgrey" />
<text x="405" y="15" fill="lightgrey" >400</text>
<line x1="500" y1="0" x2="500" y2="800" stroke="lightgrey" />
<text x="505" y="15" fill="lightgrey" >500</text>
<line x1="600" y1="0" x2="600" y2="800" stroke="lightgrey" />
<text x="605" y="15" fill="lightgrey" >600</text>
<line x1="700" y1="0" x2="700" y2="800" stroke="lightgrey" />
<text x="705" y="15" fill="lightgrey" >700</text>
<line x1="800" y1="0" x2="800" y2="800" stroke="lightgrey" />
<text x="805" y="15" fill="lightgrey" >800</text>
<line x1="900" y1="0" x2="900" y2="800" stroke="lightgrey" />
<text x="905" y="15" fill="lightgrey" >900</text>
<line x1="1000" y1="0" x2="1000" y2="800" stroke="lightgrey" />
<text x="1005" y="15" fill="lightgrey" >1000</text>
<circle cx="250" cy="150" r="10" fill="black" />
<text x="250" y="130" fill="blue" >Saint-Denis</text>
<text x="250" y="100" fill="green" >0</text>
<circle cx="90" cy="250" r="10" fill="black" />
<text x="90" y="230" fill="blue" >Saint-Paul</text>
<text x="90" y="200" fill="green" >1</text>
<circle cx="400" cy="200" r="10" fill="black" />
<text x="400" y="180" fill="blue" >Saint-Andre</text>
<text x="400" y="150" fill="green" >2</text>
<circle cx="110" cy="400" r="10" fill="black" />
<text x="110" y="380" fill="blue" >Saint-Leu</text>
<text x="110" y="350" fill="green" >3</text>
<circle cx="450" cy="300" r="10" fill="black" />
<text x="450" y="280" fill="blue" >Saint-Benoit</text>
<text x="450" y="250" fill="green" >4</text>
<circle cx="200" cy="500" r="10" fill="black" />
<text x="200" y="480" fill="blue" >Saint-Louis</text>
<text x="200" y="450" fill="green" >5</text>
<circle cx="500" cy="400" r="10" fill="black" />
<text x="500" y="380" fill="blue" >Sainte-Rose</text>
<text x="500" y="350" fill="green" >6</text>
<circle cx="250" cy="530" r="10" fill="black" />
<text x="250" y="510" fill="blue" >Saint-Pierre</text>
<text x="250" y="480" fill="green" >7</text>
<circle cx="460" cy="540" r="10" fill="black" />
<text x="460" y="520" fill="blue" >Saint-Philippe</text>
<text x="460" y="490" fill="green" >8</text>
<circle cx="350" cy="550" r="10" fill="black" />
<text x="350" y="530" fill="blue" >Saint-Joseph</text>
<text x="350" y="500" fill="green" >9</text>
<line x1="250" y1="150" x2="90" y2="250" stroke="black" />
<text x="170" y="180" fill="red" >1</text>
<line x1="250" y1="150" x2="400" y2="200" stroke="black" />
<text x="325" y="155" fill="red" >1</text>
<line x1="90" y1="250" x2="110" y2="400" stroke="black" />
<text x="100" y="305" fill="red" >1</text>
<line x1="110" y1="400" x2="200" y2="500" stroke="black" />
<text x="155" y="430" fill="red" >1</text>
<line x1="400" y1="200" x2="450" y2="300" stroke="black" />
<text x="425" y="230" fill="red" >1</text>
<line x1="200" y1="500" x2="250" y2="530" stroke="black" />
<text x="225" y="495" fill="red" >1</text>
<line x1="450" y1="300" x2="500" y2="400" stroke="black" />
<text x="475" y="330" fill="red" >1</text>
<line x1="250" y1="530" x2="350" y2="550" stroke="black" />
<text x="300" y="520" fill="red" >1</text>
<line x1="460" y1="540" x2="500" y2="400" stroke="black" />
<text x="480" y="450" fill="red" >1</text>
<line x1="460" y1="540" x2="350" y2="550" stroke="black" />
<text x="405" y="525" fill="red" >1</text>
<line x1="450" y1="300" x2="250" y2="530" stroke="black" />
<text x="350" y="395" fill="red" >1</text>
<text x="650" y="330" fill="black" >Importance des sommets en fonction </text>
<text x="630" y="350" fill="black" >du pourcentage de l'indice de centralite max </text>
<circle cx="700" cy="400" r="20" fill="lime" />
<text x="750" y="405" fill="black" >100% de la valeur max</text>
<circle cx="700" cy="450" r="20" fill="limegreen" />
<text x="750" y="455" fill="black" >90%-100%</text>
<circle cx="700" cy="500" r="20" fill="palegreen" />
<text x="750" y="505" fill="black" >80%-90%</text>
<circle cx="700" cy="550" r="20" fill="coral" />
<text x="750" y="555" fill="black" >60%-80%</text>
<circle cx="700" cy="600" r="20" fill="orange" />
<text x="750" y="605" fill="black" >50%-60%</text>
<circle cx="700" cy="650" r="20" fill="lightsalmon" />
<text x="750" y="655" fill="black" >0%-50%</text>
<circle cx="700" cy="700" r="20" fill="red" />
<text x="750" y="705" fill="black" >100% de la valeur min</text>
  

<defs>
    <radialGradient id="redball" cx="30%" cy="30%" r="100%" fx="30%" fy="30%">
      <stop offset="0%" style="stop-color:rgb(255,250,250)" />
      <stop offset="3%" style="stop-color:rgb(255,250,250)" />
      <stop offset="7%" style="stop-color:rgb(255,160,160)" />
      <stop offset="70%" style="stop-color:rgb(255,0,0)" />
      <stop offset="100%" style="stop-color:rgb(255,0,0)" />
    </radialGradient>
    <radialGradient id="greenball" cx="30%" cy="30%" r="100%" fx="30%" fy="30%">
      <stop offset="0%" style="stop-color:rgb(250,255,250)" />
      <stop offset="3%" style="stop-color:rgb(250,255,250)" />
      <stop offset="7%" style="stop-color:rgb(160,255,160)" />
      <stop offset="70%" style="stop-color:rgb(0,255,0)" />
      <stop offset="100%" style="stop-color:rgb(0,255,0)" />
    </radialGradient>
    <radialGradient id="blueball" cx="30%" cy="30%" r="100%" fx="30%" fy="30%">
      <stop offset="0%" style="stop-color:rgb(250,250,255)" />
      <stop offset="3%" style="stop-color:rgb(250,250,255)" />
      <stop offset="7%" style="stop-color:rgb(160,160,255)" />
      <stop offset="70%" style="stop-color:rgb(0,0,255)" />
      <stop offset="100%" style="stop-color:rgb(0,255,0)" />
    </radialGradient>
    <radialGradient id="yellowball" cx="30%" cy="30%" r="100%" fx="30%" fy="30%">
      <stop offset="0%" style="stop-color:rgb(255,255,250)" />
      <stop offset="3%" style="stop-color:rgb(255,255,250)" />
      <stop offset="7%" style="stop-color:rgb(255,255,160)" />
      <stop offset="70%" style="stop-color:rgb(255,255,0)" />
      <stop offset="100%" style="stop-color:rgb(255,255,0)" />
    </radialGradient>
    <radialGradient id="greyball" cx="30%" cy="30%" r="100%" fx="30%" fy="30%">
      <stop offset="0%" style="stop-color:rgb(250,250,250)" />
      <stop offset="3%" style="stop-color:rgb(250,250,250)" />
      <stop offset="7%" style="stop-color:rgb(160,160,160)" />
      <stop offset="70%" style="stop-color:rgb(100,100,100)" />
      <stop offset="100%" style="stop-color:rgb(100,100,100)" />
    </radialGradient>
  </defs>


</svg>
